<?xml version="1.0" encoding="utf-8"?>
<!-- Generator: Adobe Illustrator 24.2.3, SVG Export Plug-In . SVG Version: 6.00 Build 0)  -->
<svg version="1.1" id="Layer_1" xmlns="http://www.w3.org/2000/svg" xmlns:xlink="http://www.w3.org/1999/xlink" x="0px" y="0px"
	 viewBox="0 0 512.03 512.03" style="enable-background:new 0 0 512.03 512.03;" xml:space="preserve">
<style type="text/css">
	.st0{fill:#FFFFFF;}
</style>
<path class="st0" d="M256.01,0C114.62,0,0,114.62,0,256.01s114.62,256.01,256.01,256.01s256.01-114.62,256.01-256.01
	S397.41,0,256.01,0z M331.19,130.03c0,5.94-4.84,10.78-10.78,10.78h-11.17c-23.22,0-42.12,18.89-42.12,42.12v26.16h47.14
	c3.33,0,6.42,1.31,8.46,3.59c2.1,2.35,3.05,5.36,2.67,8.48l-2.8,23.27c-0.65,5.41-5.26,9.5-10.71,9.5h-44.76v151.64
	c0,7.34-5.97,13.31-13.31,13.31H235.6c-7.34,0-13.31-5.97-13.31-13.31V253.93h-46.75c-5.94,0-10.78-4.84-10.78-10.78v-23.27
	c0-5.95,4.84-10.78,10.78-10.78h46.75v-25.98c0-22.97,9.37-44.83,26.37-61.56c16.53-16.25,38.61-25.58,60.58-25.58
	c1.84,0,2.02,0.07,2.34,0.18c1.44,0.53,3.29,1.07,9.96,1.75c5.5,0.56,9.65,5.17,9.65,10.72V130.03z"/>
</svg>
