<?xml version="1.0" standalone="no"?>
<!DOCTYPE svg PUBLIC "-//W3C//DTD SVG 20010904//EN"
 "http://www.w3.org/TR/2001/REC-SVG-20010904/DTD/svg10.dtd">
<svg version="1.0" xmlns="http://www.w3.org/2000/svg"
 width="3840.000000pt" height="2160.000000pt" viewBox="0 0 3840.000000 2160.000000"
 preserveAspectRatio="xMidYMid meet">

<g transform="translate(0.000000,2160.000000) scale(0.100000,-0.100000)"
fill="#000000" stroke="none">
<path d="M0 10800 l0 -10800 19200 0 19200 0 0 10800 0 10800 -19200 0 -19200
0 0 -10800z m11980 7800 c335 -36 700 -186 1105 -455 206 -137 305 -219 854
-704 l325 -286 55 2 c31 1 200 24 376 53 176 28 489 77 695 110 206 33 487 77
625 100 333 53 442 64 604 57 159 -6 269 -31 449 -102 287 -114 574 -291 863
-532 84 -70 3139 -2739 3734 -3263 77 -68 310 -272 519 -454 208 -182 406
-356 441 -386 77 -67 964 -844 1051 -920 35 -30 231 -203 436 -384 205 -181
990 -869 1743 -1529 754 -661 1394 -1222 1424 -1249 30 -26 57 -45 61 -43 8 5
26 -13 31 -30 2 -5 41 -44 88 -85 47 -42 435 -381 861 -755 1008 -883 1101
-966 1252 -1117 286 -287 488 -612 488 -787 0 -97 -59 -172 -222 -283 -95 -64
-465 -328 -993 -709 -93 -67 -270 -194 -392 -282 -127 -91 -220 -164 -216
-170 3 -6 1 -7 -5 -3 -7 4 -29 -5 -49 -19 -21 -14 -33 -25 -28 -25 6 0 21 7
33 16 13 9 25 14 27 12 5 -4 -108 -82 -182 -126 -32 -18 -75 -34 -101 -37 -24
-2 -47 -7 -50 -10 -3 -2 -11 0 -19 7 -7 6 -16 8 -19 5 -3 -3 -34 3 -70 13 -35
10 -67 19 -69 19 -3 0 -26 9 -51 20 -25 11 -48 20 -52 19 -10 -3 -115 33 -129
44 -7 5 -17 7 -23 3 -6 -4 -9 -1 -8 6 2 6 -10 15 -25 20 -16 4 -35 16 -43 26
-8 11 -13 13 -14 6 0 -7 -5 -13 -11 -13 -6 0 -9 6 -6 14 3 8 0 17 -8 20 -10 3
-12 0 -8 -11 5 -14 2 -13 -19 3 -14 10 -23 23 -20 28 3 5 0 6 -6 2 -14 -8 -63
14 -56 26 3 5 -6 7 -20 4 -18 -3 -27 1 -31 13 -3 9 -21 24 -40 33 l-35 16 -30
-36 c-17 -20 -30 -32 -30 -27 0 5 11 20 24 34 40 43 144 260 166 346 31 120
27 355 -9 470 -7 21 -8 3 -4 -60 4 -77 2 -99 -17 -148 -19 -51 -32 -66 -113
-131 -91 -72 -1799 -1288 -2416 -1719 -117 -82 -288 -187 -304 -187 -6 0 46
35 114 78 103 65 1764 1244 2368 1681 316 229 358 282 348 441 -9 159 -72 291
-248 525 -118 158 -241 293 -425 466 -137 129 -248 228 -1404 1254 -322 286
-743 660 -935 830 -192 171 -473 420 -625 554 -151 134 -310 275 -352 314 -43
38 -78 67 -78 64 0 -7 148 -141 595 -537 388 -345 519 -462 1269 -1129 220
-196 420 -374 445 -396 278 -241 902 -805 1034 -935 259 -254 409 -445 513
-655 82 -167 110 -302 83 -408 l-10 -42 -63 3 c-57 3 -69 0 -147 -40 -110 -57
-385 -235 -1499 -973 -201 -132 -372 -245 -380 -249 -34 -18 43 39 170 125 74
51 147 102 161 113 15 12 39 30 54 41 16 11 44 32 64 47 20 15 41 31 46 35 6
5 30 23 55 41 70 51 155 115 279 210 63 48 128 97 145 109 17 12 36 26 42 31
5 5 29 22 52 37 23 15 42 30 42 34 0 3 20 20 45 36 24 17 45 33 45 38 0 4 5 7
10 7 6 0 19 8 29 17 35 33 76 66 76 62 1 -5 22 12 68 55 18 16 42 35 55 43 12
9 22 22 22 30 0 8 5 11 10 8 6 -4 23 7 39 24 16 17 34 31 40 31 6 0 11 5 11
11 0 5 5 7 10 4 9 -5 14 9 8 18 -2 2 14 21 35 41 20 21 37 42 37 47 0 5 9 9
21 9 11 0 18 4 15 8 -2 4 -1 14 5 22 7 13 9 13 9 0 1 -12 3 -11 14 3 8 10 12
26 9 36 -3 10 0 22 6 25 6 4 11 12 11 18 0 7 -5 6 -14 -1 -12 -10 -17 -8 -25
8 -10 17 -8 19 8 16 11 -2 22 3 25 11 7 18 -4 45 -15 38 -5 -3 -9 2 -9 10 0 9
-6 16 -14 16 -8 0 -18 5 -22 12 -5 8 0 9 17 5 22 -6 23 -5 5 8 -10 7 -15 19
-11 25 5 8 11 5 21 -7 13 -17 14 -17 7 2 -3 11 -11 23 -17 27 -14 10 13 30 28
21 5 -3 6 -1 2 5 -8 14 -36 16 -36 4 0 -5 -6 -16 -13 -27 -13 -17 -14 -17 -12
1 0 11 5 26 10 34 15 25 15 47 0 60 -11 9 -17 6 -29 -17 -9 -16 -15 -21 -16
-12 0 8 5 20 12 27 7 7 8 12 3 12 -5 0 0 7 11 16 10 8 14 13 7 10 -7 -4 -14 6
-18 24 -6 28 -25 43 -25 20 0 -5 -6 -10 -14 -10 -10 0 -14 13 -14 42 0 69 -2
76 -24 81 -11 3 -17 10 -13 16 3 6 1 11 -5 11 -7 0 -9 8 -5 19 7 22 -22 38
-39 21 -7 -7 -6 -10 3 -10 7 0 9 -5 5 -11 -4 -8 -10 -6 -17 6 -7 13 -5 20 7
27 14 8 15 12 4 26 -11 13 -11 15 4 10 11 -5 18 0 21 13 3 10 1 19 -4 19 -5 0
-9 -5 -9 -11 0 -6 -6 -9 -14 -6 -8 3 -17 3 -19 -1 -2 -4 -3 -2 -1 3 1 6 -5 20
-13 30 -12 15 -14 16 -10 3 3 -9 -3 -24 -15 -35 -20 -18 -21 -18 -10 2 6 11
13 28 16 39 4 11 12 16 21 12 8 -3 15 -3 15 0 0 2 -11 9 -25 14 -22 8 -24 13
-15 30 9 16 8 18 -5 14 -8 -4 -15 -2 -15 4 0 5 -10 12 -21 15 -15 4 -20 11
-15 22 3 9 2 14 -2 12 -10 -7 -27 15 -27 33 0 8 -6 14 -12 13 -7 -2 -13 2 -13
7 0 7 -6 7 -18 1 -18 -10 -20 -5 -23 51 0 22 -19 35 -19 14 0 -9 -5 -16 -11
-16 -5 0 -8 4 -4 9 3 5 -2 17 -11 25 -12 12 -12 16 -2 17 7 0 3 5 -9 11 -13 6
-23 15 -23 20 0 15 -61 69 -71 63 -5 -4 -9 1 -9 10 0 9 -5 13 -10 10 -5 -3
-10 3 -10 14 0 14 -6 21 -20 21 -23 0 -26 10 -8 28 15 15 3 16 -23 2 -13 -7
-19 -7 -19 0 0 5 6 10 13 10 7 0 4 7 -7 15 -11 8 -17 15 -13 15 4 0 -1 9 -10
20 -12 14 -24 18 -42 13 -21 -5 -24 -3 -13 8 15 16 16 33 0 23 -7 -5 -9 -2 -5
9 3 9 -1 21 -10 29 -15 11 -16 11 -10 -5 5 -13 3 -17 -5 -14 -7 2 -12 12 -12
21 1 9 -4 16 -12 16 -8 0 -14 5 -14 10 0 6 -6 10 -13 10 -17 0 -42 40 -25 40
7 0 5 5 -5 11 -10 6 -21 8 -24 6 -9 -10 -31 18 -25 32 4 10 1 13 -12 8 -9 -4
-15 -3 -12 2 3 5 -4 11 -15 14 -15 4 -20 11 -15 22 4 11 -3 20 -23 28 -15 7
-28 16 -29 22 0 5 -9 12 -19 16 -10 4 -12 8 -5 8 15 1 16 21 1 21 -6 0 -20 12
-31 26 -11 14 -26 23 -34 20 -7 -3 -16 4 -20 17 -8 25 -30 49 -41 45 -4 -2
-12 6 -17 18 -5 11 -22 28 -39 37 -19 11 -27 22 -23 33 3 8 1 14 -7 13 -25 -3
-38 1 -32 12 4 5 -3 18 -14 28 -12 10 -21 23 -21 29 0 6 -7 9 -15 6 -8 -4 -15
-1 -15 5 0 6 -7 11 -15 11 -8 0 -15 4 -15 8 0 14 -36 52 -50 52 -8 0 -10 8 -7
21 4 14 2 19 -8 15 -15 -5 -49 27 -38 37 3 4 -1 7 -11 7 -9 0 -21 12 -27 28
-7 16 -13 22 -16 14 -4 -10 -9 -9 -24 4 -10 9 -19 23 -19 31 0 7 -3 13 -7 13
-5 0 -22 14 -40 30 -18 17 -35 30 -38 30 -7 0 -95 87 -95 94 0 9 -47 56 -56
56 -16 1 -75 60 -69 70 3 6 0 10 -7 10 -13 1 -78 55 -78 65 0 2 -21 24 -47 47
-26 24 -59 54 -73 68 -15 14 -62 57 -105 95 -43 39 -108 99 -145 135 -36 36
-86 82 -109 102 -23 20 -86 77 -139 126 -53 49 -117 107 -141 128 -25 22 -63
57 -85 79 -23 22 -62 58 -86 79 -25 21 -74 67 -110 100 -36 34 -114 107 -175
161 -60 55 -114 105 -118 112 -4 7 -11 13 -15 13 -5 0 -35 25 -67 56 -33 30
-84 76 -113 102 -30 26 -73 65 -96 87 -23 22 -76 69 -116 105 -41 36 -93 83
-115 105 -23 22 -75 69 -115 105 -60 52 -185 165 -210 190 -3 3 -43 39 -90 80
-47 41 -87 77 -90 80 -6 7 -218 199 -280 254 -25 22 -72 65 -106 95 -33 31
-85 79 -115 106 -30 28 -75 67 -99 88 -25 21 -70 62 -100 91 -30 28 -93 85
-140 126 -47 41 -112 99 -145 130 -33 30 -88 80 -121 110 -33 30 -91 82 -129
115 -38 33 -98 88 -134 121 -61 56 -309 279 -390 349 -19 17 -64 58 -100 91
-36 34 -82 74 -101 90 -19 16 -57 49 -85 75 -124 113 -196 179 -275 249 -46
41 -134 120 -195 174 -174 156 -283 253 -405 361 -63 55 -141 125 -175 155
-33 30 -96 87 -140 125 -44 39 -104 93 -135 120 -30 28 -116 105 -190 170 -74
66 -200 179 -280 250 -80 72 -166 148 -191 170 -35 31 -473 421 -799 711 -19
17 -82 73 -140 125 -58 52 -310 277 -560 499 -250 223 -596 531 -769 685 -173
154 -337 300 -366 325 -29 25 -454 403 -946 840 -1106 984 -1277 1135 -1415
1244 -355 283 -771 503 -1123 593 -127 33 -146 35 -291 35 -88 0 -241 -9 -355
-21 -241 -26 -1442 -158 -1505 -166 -127 -15 -1677 -186 -1814 -200 -88 -9
-225 -20 -305 -25 -142 -10 -223 -24 -270 -50 -15 -7 -21 -8 -17 -1 4 6 4 11
0 11 -12 0 -195 -100 -211 -115 -8 -8 -21 -15 -29 -15 -8 0 -14 -4 -14 -10 0
-5 -3 -9 -7 -8 -5 1 -28 -10 -52 -26 -35 -22 -50 -26 -77 -21 -22 4 -32 10
-28 18 3 7 -36 -31 -87 -83 -107 -109 -95 -71 15 46 113 123 260 205 452 254
130 34 315 59 899 125 319 36 859 97 1200 136 2121 239 2037 232 2255 209z
m-3500 -733 c0 -2 -10 -12 -22 -23 l-23 -19 19 23 c18 21 26 27 26 19z m94
-46 c-55 -34 -74 -67 -74 -133 0 -32 7 -74 15 -94 8 -19 10 -32 5 -29 -13 8
-40 102 -40 138 0 62 60 137 110 137 8 0 1 -9 -16 -19z m796 -224 c149 -100
180 -127 965 -838 83 -75 251 -227 375 -339 255 -230 407 -376 452 -435 17
-22 2 -10 -33 27 -66 69 -205 197 -534 494 -105 94 -339 306 -521 470 -463
420 -478 432 -584 515 -52 41 -142 103 -200 138 -58 35 -109 69 -115 74 -22
21 125 -59 195 -106z m-1625 -218 c65 -72 193 -201 285 -287 311 -294 435
-409 470 -438 29 -24 1021 -926 1835 -1669 121 -110 756 -689 1410 -1285 655
-596 1264 -1152 1355 -1235 91 -83 575 -524 1075 -980 501 -456 1009 -919
1130 -1030 314 -287 1038 -947 1700 -1550 314 -285 644 -587 735 -670 91 -83
473 -432 850 -775 1509 -1375 3048 -2779 3293 -3005 693 -636 945 -855 1242
-1076 121 -90 136 -104 114 -107 -85 -10 -362 133 -589 304 -206 155 -495 404
-495 427 0 7 -16 24 -35 38 -19 15 -53 45 -75 68 -21 22 -45 41 -52 41 -8 0
-215 183 -461 408 -246 224 -622 567 -837 763 -214 195 -849 773 -1410 1284
-929 846 -1498 1365 -1975 1799 -174 159 -337 307 -670 611 -96 88 -427 390
-735 671 -308 281 -618 564 -690 629 -285 261 -686 626 -1019 928 -193 176
-420 383 -505 460 -194 178 -646 590 -1125 1026 -332 302 -507 461 -1026 936
-296 270 -1435 1309 -1474 1345 -41 36 -196 178 -409 373 -67 61 -192 175
-277 252 -85 77 -186 169 -225 205 -39 36 -115 106 -170 156 -55 50 -212 194
-350 319 -137 125 -249 233 -248 239 1 6 -27 35 -63 64 -35 29 -64 59 -64 67
0 8 -7 11 -18 8 -30 -7 -371 318 -515 492 -111 134 -178 325 -114 325 8 0 67
-59 132 -131z m826 54 c13 -16 12 -17 -3 -4 -10 7 -18 15 -18 17 0 8 8 3 21
-13z m669 -629 c568 -516 887 -803 957 -861 82 -68 238 -176 332 -231 42 -24
65 -41 51 -37 -42 12 -189 105 -310 196 -130 98 -213 170 -561 485 -243 220
-304 276 -684 619 -110 100 -240 215 -290 257 -106 90 -151 135 -142 144 4 4
1 14 -6 23 -6 9 51 -43 128 -115 77 -71 313 -288 525 -480z m471 559 c13 -16
12 -17 -3 -4 -17 13 -22 21 -14 21 2 0 10 -8 17 -17z m90 -80 c13 -16 12 -17
-3 -4 -10 7 -18 15 -18 17 0 8 8 3 21 -13z m-658 -37 c53 -24 81 -46 57 -46
-16 0 -107 48 -115 60 -9 14 -4 13 58 -14z m763 -58 l29 -33 -32 29 c-31 28
-38 36 -30 36 2 0 16 -15 33 -32z m89 -78 c10 -11 16 -20 13 -20 -3 0 -13 9
-23 20 -10 11 -16 20 -13 20 3 0 13 -9 23 -20z m-1805 -110 c3 -3 68 -61 145
-130 141 -126 288 -258 469 -424 54 -50 108 -99 120 -109 46 -40 98 -87 255
-231 91 -83 180 -164 200 -181 44 -38 258 -232 471 -425 58 -53 125 -114 150
-135 24 -22 76 -69 115 -105 39 -36 106 -96 150 -135 44 -38 107 -95 140 -125
34 -30 97 -86 140 -125 44 -38 113 -101 155 -140 41 -38 93 -86 115 -105 21
-19 55 -50 75 -68 19 -19 71 -67 115 -107 44 -40 92 -83 106 -96 14 -13 63
-58 109 -99 46 -41 99 -90 119 -109 20 -18 65 -59 101 -90 72 -62 180 -161
223 -203 15 -16 29 -28 32 -28 3 0 13 -8 24 -17 54 -52 147 -137 226 -208 49
-44 99 -89 111 -100 58 -53 222 -203 249 -229 16 -15 56 -51 89 -80 32 -28 70
-62 85 -76 15 -14 61 -54 101 -90 40 -36 92 -83 116 -105 23 -22 75 -69 114
-105 40 -36 78 -70 84 -75 6 -6 81 -73 166 -149 85 -77 173 -157 195 -177 51
-48 156 -143 220 -200 45 -40 273 -247 285 -259 3 -3 41 -37 85 -75 44 -39 89
-79 100 -91 11 -12 67 -63 125 -114 94 -83 174 -156 359 -327 67 -61 144 -131
226 -203 33 -30 87 -79 120 -110 65 -62 85 -80 201 -185 43 -38 107 -97 144
-131 36 -33 85 -78 110 -100 41 -37 86 -77 355 -320 97 -87 515 -464 580 -523
22 -20 85 -77 140 -126 100 -89 159 -143 219 -200 17 -17 72 -66 121 -110 50
-44 117 -104 150 -135 100 -92 267 -244 320 -291 27 -24 99 -89 160 -144 61
-55 155 -140 210 -190 55 -49 154 -139 220 -200 66 -60 138 -126 160 -146 22
-20 76 -69 120 -109 44 -41 93 -85 109 -99 17 -15 94 -84 171 -156 78 -71 202
-184 275 -250 74 -66 164 -147 200 -180 36 -33 108 -98 160 -145 52 -47 128
-116 170 -155 42 -38 138 -126 215 -195 77 -69 163 -145 190 -171 82 -75 295
-268 385 -349 46 -41 88 -80 94 -85 53 -50 402 -369 441 -404 53 -47 118 -107
225 -206 36 -33 108 -98 160 -145 181 -162 335 -303 400 -364 63 -60 196 -180
375 -341 49 -44 146 -132 215 -195 69 -63 130 -119 136 -125 6 -5 53 -49 105
-96 406 -370 625 -580 809 -776 41 -44 102 -103 135 -132 60 -53 59 -53 -24
10 -121 90 -317 262 -791 694 -228 208 -532 485 -675 615 -542 494 -1436 1309
-2140 1950 -1300 1186 -1410 1286 -2160 1969 -407 372 -839 765 -960 876 -121
110 -348 317 -505 460 -275 250 -522 476 -905 825 -99 91 -383 349 -630 575
-248 225 -531 484 -631 575 -99 91 -276 253 -394 360 -118 107 -295 269 -395
360 -99 91 -329 300 -510 465 -181 165 -411 374 -510 465 -99 91 -381 347
-625 570 -245 223 -479 436 -520 475 -42 38 -194 178 -340 310 -145 132 -348
317 -450 410 -102 94 -336 307 -520 475 -871 794 -1150 1051 -1150 1058 0 5
37 -27 70 -58z m1916 8 l29 -33 -32 29 c-18 17 -33 31 -33 33 0 8 8 1 36 -29z
m-2701 -22 c28 -13 82 -47 120 -75 75 -55 514 -423 514 -431 1 -3 -9 -18 -22
-34 l-23 -29 -40 37 c-52 49 -396 307 -506 379 -82 54 -148 118 -148 142 0 16
22 35 40 35 8 0 38 -11 65 -24z m2815 -81 c13 -14 21 -25 18 -25 -2 0 -15 11
-28 25 -13 14 -21 25 -18 25 2 0 15 -11 28 -25z m75 -65 c10 -11 16 -20 13
-20 -3 0 -13 9 -23 20 -10 11 -16 20 -13 20 3 0 13 -9 23 -20z m-569 -38 c36
-31 56 -76 29 -66 -9 4 -24 -1 -34 -10 -15 -14 -20 -14 -37 -2 -10 8 -15 18
-11 23 5 4 15 -1 23 -11 10 -15 14 -16 14 -5 0 8 -4 19 -10 25 -11 11 -21 74
-11 74 3 0 20 -13 37 -28z m155 -22 c23 -19 23 -19 4 -20 -21 0 -45 17 -45 32
0 14 17 9 41 -12z m-211 -11 c0 -14 -17 -10 -23 5 -4 10 -1 13 9 9 7 -3 14 -9
14 -14z m165 -3 c12 -8 16 -20 12 -35 -4 -16 1 -26 19 -37 13 -9 21 -20 18
-25 -3 -5 10 -24 29 -42 18 -17 36 -39 39 -47 5 -15 0 -16 -56 -11 -4 1 -6 15
-4 32 4 23 -1 34 -16 45 -12 8 -21 19 -21 24 0 5 -14 22 -32 37 -39 35 -53 73
-26 73 11 0 27 -6 38 -14z m581 -38 l29 -33 -32 29 c-18 17 -33 31 -33 33 0 8
8 1 36 -29z m-616 -40 c0 -5 5 -6 10 -3 6 3 10 2 10 -4 0 -5 -4 -13 -10 -16
-5 -3 -10 -1 -10 4 0 6 -6 11 -12 11 -14 1 -58 34 -58 44 0 3 16 -2 35 -11 19
-9 35 -21 35 -25z m155 4 c-3 -3 -11 0 -18 7 -9 10 -8 11 6 5 10 -3 15 -9 12
-12z m70 -12 c3 -6 -1 -7 -9 -4 -18 7 -21 14 -7 14 6 0 13 -4 16 -10z m-59
-24 c10 -8 16 -17 13 -21 -4 -3 -13 1 -22 9 -8 8 -17 12 -21 9 -3 -4 -6 -1 -6
5 0 16 12 15 36 -2z m-160 -17 c3 -6 20 -19 38 -30 17 -10 27 -19 22 -19 -14
0 -86 43 -86 52 0 12 18 10 26 -3z m273 -25 c10 -23 9 -25 -11 -22 -17 2 -24
11 -26 30 -4 35 20 29 37 -8z m462 -1 c13 -16 12 -17 -3 -4 -17 13 -22 21 -14
21 2 0 10 -8 17 -17z m-515 -23 c8 0 14 -9 14 -20 0 -27 -12 -25 -41 7 -19 21
-20 25 -6 20 10 -4 25 -7 33 -7z m584 -35 c19 -19 32 -35 29 -35 -3 0 -20 16
-39 35 -19 19 -32 35 -29 35 3 0 20 -16 39 -35z m-585 -15 c10 -11 16 -20 13
-20 -3 0 -15 9 -28 20 -13 11 -19 20 -13 20 5 0 18 -9 28 -20z m705 -95 c19
-19 32 -35 29 -35 -3 0 -20 16 -39 35 -19 19 -32 35 -29 35 3 0 20 -16 39 -35z
m-2565 -112 c-3 -10 0 -11 12 -5 13 8 81 -50 347 -291 396 -360 389 -354 546
-498 104 -95 581 -528 954 -864 166 -150 271 -237 299 -250 l29 -12 -52 -10
-52 -11 -77 66 c-42 37 -139 123 -216 192 -77 70 -307 277 -511 461 -203 184
-527 475 -720 648 -192 173 -376 340 -409 370 -33 31 -84 77 -112 103 -28 26
-54 44 -58 40 -4 -4 -4 3 0 16 3 12 2 21 -3 20 -5 -2 -36 22 -70 53 -57 54
-60 58 -46 78 15 21 16 20 80 -36 38 -33 62 -63 59 -70z m2681 5 l29 -33 -32
29 c-18 17 -33 31 -33 33 0 8 8 1 36 -29z m124 -115 c0 -8 -9 0 -50 45 l-45
47 48 -45 c26 -24 47 -45 47 -47z m282 -288 c109 -143 142 -259 99 -347 -24
-51 -76 -96 -84 -74 -3 8 5 18 19 25 65 29 84 146 41 251 -36 86 -91 163 -211
289 -109 115 -109 115 -17 26 51 -49 120 -126 153 -170z m-717 97 c-6 -7 -35
18 -35 31 0 5 9 2 20 -8 11 -10 18 -20 15 -23z m11 -73 c4 -8 1 -8 -14 0 -12
6 -24 16 -28 22 -4 8 -1 8 14 0 12 -6 24 -16 28 -22z m191 -51 c-3 -7 -5 -2
-5 12 0 14 2 19 5 13 2 -7 2 -19 0 -25z m524 -249 c-6 -20 -18 -42 -26 -49
-11 -9 -10 -2 5 31 11 24 20 58 21 74 2 27 2 27 6 5 3 -13 0 -41 -6 -61z
m-766 -1330 c51 -24 78 -46 310 -259 207 -190 303 -278 795 -725 484 -440 565
-520 575 -563 7 -32 -3 -60 -12 -35 -17 48 -144 172 -608 595 -291 266 -644
588 -784 717 -140 129 -275 247 -300 262 -53 34 -40 38 24 8z m-134 -35 c36
-18 176 -144 1194 -1075 495 -451 582 -535 571 -547 -14 -14 -96 55 -482 403
-115 104 -273 246 -349 315 -77 69 -212 190 -300 270 -88 79 -227 205 -310
280 -343 310 -379 336 -446 327 -41 -5 -49 2 -25 22 37 30 93 32 147 5z m1873
-1537 c8 -23 20 -61 26 -84 7 -27 23 -52 48 -73 20 -18 78 -72 127 -119 360
-343 1390 -1276 1474 -1335 36 -25 39 -36 11 -36 -12 0 -42 19 -68 43 -26 23
-78 69 -116 102 -38 33 -106 91 -150 130 -45 38 -149 130 -231 205 -83 74
-299 268 -480 430 -439 394 -577 519 -596 543 -9 11 -21 17 -28 13 -8 -5 -11
15 -11 72 0 68 -4 88 -29 138 -18 36 -23 50 -11 36 10 -12 25 -41 34 -65z
m-106 -243 c-11 -11 -23 -14 -35 -9 -16 7 -15 9 7 15 40 12 45 11 28 -6z
m1894 -1471 c23 -21 69 -63 102 -94 68 -62 396 -362 551 -503 180 -164 229
-210 340 -312 61 -55 166 -151 235 -214 69 -62 136 -124 150 -139 l25 -25 -25
19 c-14 11 -27 22 -30 25 -3 3 -63 57 -135 120 -71 63 -146 129 -165 146 -89
79 -169 151 -210 188 -25 23 -121 109 -215 191 -93 82 -215 190 -270 241 -55
50 -123 111 -151 135 -28 24 -103 90 -167 147 -95 84 -122 102 -149 103 -31 1
-32 1 -8 9 41 14 78 3 122 -37z m138 -38 c13 -14 21 -25 18 -25 -2 0 -15 11
-28 25 -13 14 -21 25 -18 25 2 0 15 -11 28 -25z m130 -122 c0 -8 -9 0 -50 45
l-45 47 48 -45 c26 -24 47 -45 47 -47z m100 -90 c0 -8 -9 0 -50 45 l-45 47 48
-45 c26 -24 47 -45 47 -47z m130 -120 c0 -8 -9 0 -50 45 l-45 47 48 -45 c26
-24 47 -45 47 -47z m215 -194 c11 -13 -28 21 -87 75 -60 54 -108 101 -108 103
0 7 170 -148 195 -178z m80 -69 c27 -27 47 -50 44 -50 -3 0 -27 23 -54 50 -27
28 -47 50 -44 50 3 0 27 -22 54 -50z m165 -157 c0 -8 -9 0 -50 45 l-45 47 48
-45 c26 -24 47 -45 47 -47z m230 -210 c0 -3 -49 41 -110 97 -60 56 -110 104
-110 107 0 3 50 -41 110 -97 61 -56 110 -104 110 -107z m65 -53 c27 -27 47
-50 44 -50 -3 0 -27 23 -54 50 -27 28 -47 50 -44 50 3 0 27 -22 54 -50z m120
-110 c27 -27 47 -50 44 -50 -3 0 -27 23 -54 50 -27 28 -47 50 -44 50 3 0 27
-22 54 -50z m110 -100 c27 -27 47 -50 44 -50 -3 0 -27 23 -54 50 -27 28 -47
50 -44 50 3 0 27 -22 54 -50z m35 -129 c25 -24 36 -38 25 -30 -11 8 -40 34
-65 58 -25 24 -36 38 -25 30 11 -8 40 -34 65 -58z m152 -56 c6 -11 9 -18 6
-15 -2 3 -31 34 -63 70 l-59 65 53 -50 c29 -27 57 -59 63 -70z m-279 -69 c-10
-13 -20 -19 -22 -13 -2 5 4 16 15 24 26 19 27 16 7 -11z m311 -42 c3 -8 2 -12
-4 -9 -6 3 -10 10 -10 16 0 14 7 11 14 -7z m36 -58 c-7 -7 -10 1 -9 25 0 32 1
33 10 10 6 -16 6 -28 -1 -35z m-363 -13 c-3 -10 -5 -4 -5 12 0 17 2 24 5 18 2
-7 2 -21 0 -30z m57 -69 c3 -8 2 -12 -4 -9 -6 3 -10 10 -10 16 0 14 7 11 14
-7z m1277 -1051 c13 -16 12 -17 -3 -4 -10 7 -18 15 -18 17 0 8 8 3 21 -13z
m5322 -104 c46 -24 127 -86 127 -98 0 -4 -18 -16 -40 -26 -22 -10 -40 -22 -40
-26 0 -11 51 -45 77 -52 14 -3 32 2 47 14 24 19 25 19 51 -4 l27 -22 -22 -20
c-48 -44 -146 -5 -253 101 -72 71 -97 115 -77 139 17 21 53 19 103 -6z m-5198
-9 c10 -11 16 -20 13 -20 -3 0 -13 9 -23 20 -10 11 -16 20 -13 20 3 0 13 -9
23 -20z m5074 -75 c54 -38 231 -196 231 -206 0 -25 -42 0 -129 77 -106 94
-148 121 -163 106 -19 -19 4 -53 96 -134 94 -84 109 -103 81 -103 -25 0 -298
247 -283 256 7 5 20 2 29 -7 20 -18 30 -18 23 1 -4 8 -3 22 0 31 9 23 69 12
115 -21z m-516 -105 c41 -38 78 -70 81 -70 3 0 5 10 3 23 -3 36 57 36 110 0
65 -44 243 -205 237 -214 -11 -18 -29 -7 -113 69 -115 104 -140 122 -167 122
-48 0 -26 -37 81 -136 93 -86 113 -114 85 -114 -16 0 -420 371 -415 381 11 17
22 10 98 -61z m354 30 c69 -35 173 -131 193 -179 29 -72 -34 -92 -129 -41 -68
36 -186 153 -197 194 -15 61 40 72 133 26z m-4732 -10 c10 -11 16 -20 13 -20
-3 0 -13 9 -23 20 -10 11 -16 20 -13 20 3 0 13 -9 23 -20z m4300 -39 c51 -23
131 -94 151 -133 17 -34 11 -78 -11 -78 -32 0 -20 -20 51 -83 57 -51 71 -69
59 -73 -9 -4 -25 2 -38 13 -207 185 -363 327 -365 332 -4 12 53 40 83 41 17 0
48 -9 70 -19z m-185 -46 c17 -9 30 -17 30 -19 0 -3 3 -11 6 -20 4 -9 1 -16 -6
-16 -19 0 -70 40 -70 56 0 18 4 18 40 -1z m-3930 -87 c0 -13 -4 -10 -50 39
l-45 46 48 -39 c26 -21 47 -42 47 -46z m4119 -85 c183 -163 194 -174 183 -185
-8 -8 -52 26 -156 118 -79 71 -145 132 -145 137 -3 24 42 -3 118 -70z m-3959
-59 c23 -25 14 -20 -25 15 -83 75 -97 90 -50 54 22 -17 56 -48 75 -69z m295
-264 c82 -74 179 -162 215 -195 36 -33 86 -78 111 -100 86 -77 244 -220 249
-225 5 -5 291 -263 660 -595 85 -77 173 -156 195 -176 108 -98 395 -357 515
-464 74 -66 141 -127 150 -135 9 -8 99 -89 200 -180 101 -91 218 -197 260
-235 41 -39 111 -101 155 -140 44 -38 109 -97 145 -130 36 -33 108 -98 160
-145 52 -47 122 -110 155 -141 56 -51 354 -319 504 -453 36 -32 128 -115 203
-184 128 -117 136 -127 122 -143 -15 -16 -42 6 -397 329 -210 191 -551 500
-756 687 -206 187 -456 414 -556 505 -99 91 -294 268 -432 394 -139 126 -250
233 -247 238 3 5 0 7 -8 6 -7 -2 -12 3 -10 10 1 6 -3 11 -10 10 -6 -2 -18 10
-26 25 -8 16 -19 26 -27 24 -7 -3 -30 12 -51 34 -21 21 -35 39 -30 39 4 0 4 5
0 11 -4 8 -9 7 -16 -2 -7 -11 -8 -11 -6 2 3 14 -216 219 -741 693 -97 87 -205
186 -241 220 -36 34 -106 97 -155 142 -329 296 -525 477 -525 481 0 3 19 -12
43 -33 23 -22 109 -100 192 -174z m11866 -747 l34 -38 -35 30 c-19 16 -39 33
-44 37 -6 5 -6 8 0 8 6 0 26 -17 45 -37z m-10556 -473 c10 -11 16 -20 13 -20
-3 0 -13 9 -23 20 -10 11 -16 20 -13 20 3 0 13 -9 23 -20z m7460 -328 c-3 -3
-11 0 -18 7 -9 10 -8 11 6 5 10 -3 15 -9 12 -12z m3737 -134 c1 -90 -24 -139
-115 -225 -40 -37 -302 -246 -582 -464 -281 -218 -663 -515 -850 -660 -506
-393 -566 -434 -683 -458 -66 -14 -115 -14 -107 -1 3 6 23 10 44 10 61 0 134
27 212 78 74 49 318 237 1059 818 1010 792 976 762 1000 849 8 28 11 70 7 108
-4 47 -3 56 4 37 6 -14 10 -55 11 -92z m-3681 -1 c-10 -9 -11 -8 -5 6 3 10 9
15 12 12 3 -3 0 -11 -7 -18z m59 -28 c0 -6 -4 -7 -10 -4 -5 3 -10 11 -10 16 0
6 5 7 10 4 6 -3 10 -11 10 -16z m-25 -19 c3 -6 -1 -7 -9 -4 -18 7 -21 14 -7
14 6 0 13 -4 16 -10z m45 -54 c0 -2 -8 -10 -17 -17 -16 -13 -17 -12 -4 4 13
16 21 21 21 13z m67 -91 c0 -8 -6 -15 -14 -15 -7 0 -13 7 -13 15 0 8 6 15 13
15 8 0 14 -7 14 -15z m-24 -21 c8 -8 -3 -34 -14 -34 -5 0 -9 9 -9 20 0 19 11
26 23 14z m3529 -247 c-44 -85 -117 -181 -132 -172 -5 3 -16 -7 -24 -22 -8
-15 -29 -41 -46 -58 -64 -59 -12 15 76 108 54 57 96 114 121 162 21 41 40 72
42 69 3 -2 -14 -41 -37 -87z m-251 -274 c-11 -22 -71 -98 -71 -91 0 20 34 79
52 92 28 20 31 20 19 -1z m-86 -70 c-10 -16 -28 -39 -41 -54 -13 -14 -24 -30
-24 -37 0 -7 -4 -12 -10 -12 -13 0 -13 -1 10 45 16 32 64 83 79 85 2 0 -5 -12
-14 -27z m-92 -74 c-10 -16 -28 -39 -40 -51 l-22 -20 6 22 c5 19 58 79 71 80
2 0 -5 -14 -15 -31z m-91 -76 c-11 -15 -29 -36 -40 -46 -20 -18 -20 -18 -15 4
6 21 64 81 72 74 2 -2 -6 -16 -17 -32z m28 -13 c0 -5 -5 -10 -11 -10 -5 0 -7
5 -4 10 3 6 8 10 11 10 2 0 4 -4 4 -10z m-109 -47 c-5 -10 -25 -33 -45 -52
-19 -19 -32 -39 -29 -45 3 -6 3 -8 -2 -4 -4 4 -25 -6 -45 -22 -21 -17 -44 -30
-51 -30 -8 0 -40 -32 -72 -70 -64 -76 -99 -97 -45 -27 52 68 121 137 130 131
5 -4 12 2 14 12 3 11 27 34 54 52 26 18 56 42 65 52 22 25 39 26 26 3z m-258
-162 c-16 -14 -33 -35 -39 -46 -9 -16 -15 -18 -34 -9 -23 10 -23 11 29 52 57
45 89 48 44 3z m-2288 -162 c-26 -32 -26 -32 -6 -50 11 -11 18 -25 15 -33 -3
-8 15 -28 45 -51 54 -39 66 -53 29 -34 -35 18 -158 101 -158 106 0 5 93 92 98
93 2 0 -8 -14 -23 -31z m-180 -79 c-3 -5 -16 -15 -28 -21 -19 -9 -19 -8 3 10
28 23 34 26 25 11z m151 -61 c77 -63 88 -86 38 -81 -36 4 -172 60 -181 75 -5
9 48 67 63 67 3 0 39 -27 80 -61z m2000 24 c-34 -63 -92 -128 -117 -131 -15
-2 -32 -13 -39 -25 -13 -24 -132 -128 -139 -121 -2 2 2 10 9 19 7 9 10 18 7
21 -9 9 162 146 173 139 5 -3 10 -1 10 5 0 8 97 116 108 119 1 1 -4 -11 -12
-26z m-2276 -63 c-37 -28 -50 -24 -15 5 16 13 32 22 34 19 3 -3 -5 -14 -19
-24z m-115 -90 c-31 -32 -45 -38 -45 -17 0 12 62 58 69 51 3 -2 -8 -18 -24
-34z m-101 -67 c-10 -16 -30 -41 -45 -58 -20 -21 -25 -32 -16 -37 9 -6 8 -8
-2 -8 -8 0 -23 -8 -34 -17 -24 -21 -15 0 14 32 9 11 19 29 21 40 1 11 19 32
38 47 44 34 46 34 24 1z m2171 -60 c-10 -16 -28 -39 -41 -54 -13 -14 -24 -30
-24 -37 0 -7 -5 -12 -10 -12 -6 0 -4 14 5 31 9 17 14 33 12 36 -6 6 54 62 67
63 4 0 0 -12 -9 -27z m-2274 -10 c-21 -38 -200 -189 -187 -158 5 11 8 28 8 38
0 9 5 17 11 17 7 0 48 27 92 59 93 68 88 66 76 44z m2170 -76 c-16 -24 -36
-49 -45 -56 -9 -8 -16 -20 -16 -27 0 -8 -4 -14 -10 -14 -15 0 21 71 54 108 43
46 52 40 17 -11z m-733 16 c-10 -2 -26 -2 -35 0 -10 3 -2 5 17 5 19 0 27 -2
18 -5z m633 -96 c-16 -24 -36 -49 -45 -56 -9 -7 -14 -17 -11 -21 3 -5 0 -12
-6 -16 -9 -5 -10 0 -5 17 4 13 8 30 9 38 2 15 67 80 80 81 4 0 -5 -19 -22 -43z
m-3531 29 c0 -2 -12 -11 -27 -20 l-28 -17 24 20 c23 21 31 25 31 17z m1224
-53 c-16 -15 -55 -57 -87 -92 -31 -36 -57 -60 -57 -54 0 27 155 191 168 178 3
-2 -8 -17 -24 -32z m-1292 5 c-6 -7 -25 -22 -44 -32 -39 -23 -32 -13 14 20 38
26 45 29 30 12z m1193 -8 c-13 -15 -22 -17 -29 -10 -12 12 8 30 33 30 11 0 10
-5 -4 -20z m2329 -22 c-4 -7 -23 -33 -43 -58 -20 -24 -36 -49 -36 -54 0 -5 -6
-11 -13 -14 -10 -3 -10 4 3 28 9 17 14 34 12 37 -3 2 11 20 31 38 37 35 59 45
46 23z m-123 -111 c-16 -24 -36 -49 -45 -56 -9 -8 -16 -20 -16 -27 0 -8 -4
-14 -10 -14 -13 0 -13 0 10 44 16 32 74 96 87 96 2 0 -9 -19 -26 -43z m-1503
-13 c42 -15 79 -30 82 -33 13 -16 142 -113 208 -156 269 -173 554 -210 773
-100 71 35 219 137 284 195 68 61 81 67 47 23 -19 -24 -38 -45 -43 -48 -5 -4
-9 -15 -9 -26 0 -11 -4 -18 -9 -14 -5 3 -22 -7 -38 -21 -82 -77 -252 -169
-378 -206 -115 -33 -300 -31 -436 5 -204 53 -419 193 -530 344 -56 75 -58 73
49 37z m-4913 -24 c-3 -5 -12 -10 -18 -10 -7 0 -6 4 3 10 19 12 23 12 15 0z
m330 -246 c66 -50 158 -116 205 -149 157 -107 136 -108 -45 -1 -170 100 -301
194 -442 316 -48 41 -51 46 -37 61 15 16 22 12 107 -59 51 -43 146 -118 212
-168z m3451 59 c-21 -38 -119 -143 -111 -118 4 11 7 24 8 30 1 5 14 17 28 27
15 9 39 32 54 52 33 43 41 46 21 9z m-3861 -123 c27 -27 47 -50 44 -50 -3 0
-27 23 -54 50 -27 28 -47 50 -44 50 3 0 27 -22 54 -50z m3659 -57 c-38 -38
-90 -83 -116 -100 l-46 -33 2 25 c0 14 5 25 9 25 5 0 45 28 90 63 75 58 116
86 126 87 3 0 -27 -30 -65 -67z m-3539 -53 c27 -27 47 -50 44 -50 -3 0 -27 23
-54 50 -27 28 -47 50 -44 50 3 0 27 -22 54 -50z m336 -292 c218 -179 396 -290
594 -373 257 -108 521 -143 637 -84 45 23 79 19 58 -6 -36 -44 -241 -59 -388
-29 -244 49 -532 192 -792 392 -102 79 -262 216 -339 290 -32 31 -20 22 29
-20 47 -41 137 -118 201 -170z m2971 175 c-11 -15 -30 -37 -42 -48 l-23 -20 7
25 c7 24 65 84 74 75 2 -2 -5 -16 -16 -32z m-120 -80 c-25 -35 -72 -79 -71
-67 2 24 17 45 48 69 44 32 47 31 23 -2z m-140 -110 c-11 -15 -29 -37 -41 -47
-21 -19 -21 -19 -21 5 1 16 13 33 38 50 20 14 39 25 41 23 2 -2 -6 -15 -17
-31z m-130 -90 c-11 -16 -31 -38 -45 -51 l-25 -24 2 26 c0 15 8 29 17 31 9 3
24 14 34 25 27 30 39 24 17 -7z m-122 -84 c-15 -28 -82 -101 -87 -95 -7 7 21
48 57 82 41 39 44 41 30 13z m-151 -110 c-16 -31 -94 -105 -163 -156 -144
-106 -374 -209 -506 -227 -30 -4 -1 9 85 38 72 25 166 63 210 86 87 46 294
192 346 246 38 40 44 42 28 13z"/>
<path d="M21810 10446 c0 -2 8 -10 18 -17 15 -13 16 -12 3 4 -13 16 -21 21
-21 13z"/>
<path d="M21980 10296 c0 -2 8 -10 18 -17 15 -13 16 -12 3 4 -13 16 -21 21
-21 13z"/>
<path d="M22150 10146 c0 -2 8 -10 18 -17 15 -13 16 -12 3 4 -13 16 -21 21
-21 13z"/>
<path d="M22250 10056 c0 -2 8 -10 18 -17 15 -13 16 -12 3 4 -13 16 -21 21
-21 13z"/>
<path d="M22380 9936 c0 -2 8 -10 18 -17 15 -13 16 -12 3 4 -13 16 -21 21 -21
13z"/>
<path d="M22450 9877 c0 -2 15 -16 33 -33 l32 -29 -29 33 c-28 30 -36 37 -36
29z"/>
<path d="M22560 9775 c13 -14 26 -25 28 -25 3 0 -5 11 -18 25 -13 14 -26 25
-28 25 -3 0 5 -11 18 -25z"/>
<path d="M22620 9727 c0 -2 15 -16 33 -33 l32 -29 -29 33 c-28 30 -36 37 -36
29z"/>
<path d="M22710 9647 c0 -2 15 -16 33 -33 l32 -29 -29 33 c-28 30 -36 37 -36
29z"/>
<path d="M22800 9567 c0 -2 15 -16 33 -33 l32 -29 -29 33 c-28 30 -36 37 -36
29z"/>
<path d="M22900 9475 c19 -19 36 -35 39 -35 3 0 -10 16 -29 35 -19 19 -36 35
-39 35 -3 0 10 -16 29 -35z"/>
<path d="M22960 9427 c0 -3 36 -37 80 -77 44 -40 80 -70 80 -67 0 3 -36 37
-80 77 -44 40 -80 70 -80 67z"/>
<path d="M26507 5893 c-13 -12 -7 -23 11 -22 10 0 12 3 4 6 -6 2 -10 9 -6 14
6 10 0 12 -9 2z"/>
<path d="M26535 5840 c-3 -5 1 -10 9 -10 9 0 16 5 16 10 0 6 -4 10 -9 10 -6 0
-13 -4 -16 -10z"/>
<path d="M26540 5810 c0 -5 7 -7 15 -4 8 4 15 8 15 10 0 2 -7 4 -15 4 -8 0
-15 -4 -15 -10z"/>
<path d="M26570 5761 c0 -6 5 -11 11 -11 6 0 9 -7 6 -14 -4 -9 2 -17 14 -21
10 -4 19 -13 19 -21 0 -8 8 -14 18 -13 10 0 12 3 4 6 -6 2 -10 8 -7 13 3 5 -3
11 -14 15 -11 3 -21 16 -23 27 -3 22 -28 38 -28 19z"/>
<path d="M26590 5160 c0 -5 5 -10 10 -10 6 0 10 5 10 10 0 6 -4 10 -10 10 -5
0 -10 -4 -10 -10z"/>
<path d="M8615 17360 c10 -11 20 -20 23 -20 3 0 -3 9 -13 20 -10 11 -20 20
-23 20 -3 0 3 -9 13 -20z"/>
<path d="M22004 8155 c-8 -19 22 -65 42 -65 21 0 54 19 54 30 0 9 -71 50 -85
50 -3 0 -8 -7 -11 -15z"/>
<path d="M21695 7999 c-17 -26 99 -142 169 -168 60 -23 61 13 4 76 -71 77
-155 122 -173 92z"/>
<path d="M21264 7939 c-3 -6 0 -16 7 -23 8 -7 40 -36 71 -65 49 -46 59 -51 77
-41 12 6 21 16 21 22 0 20 -42 74 -75 96 -33 23 -89 29 -101 11z"/>
<path d="M19140 6086 c0 -2 8 -10 18 -17 15 -13 16 -12 3 4 -13 16 -21 21 -21
13z"/>
</g>
</svg>
