<svg xmlns="http://www.w3.org/2000/svg" viewBox="0 0 85.99 213.31"><title>Recurso 2</title><g id="Capa_2" data-name="Capa 2"><g id="Capa_1-2" data-name="Capa 1"><path d="M12.7,213H10.09l-1-5.39H3.55L2.61,213H0l5.15-26.23h2.3Zm-4-7.51L7,195.4c-.31-1.78-.45-3.58-.66-5.36H6.19c-.24,1.77-.42,3.58-.7,5.36L4,205.45Z" style="fill:#fff"/><path d="M19.72,199.12h6V204c0,4.14-.21,9.36-5.64,9.36S14,207.5,14,199.22c0-6.19.73-12.84,6.3-12.84,3.13,0,4.7,2.09,5.36,4.94l-2.4.94c-.28-1.57-.94-3.51-2.85-3.51-3.62,0-3.9,5.64-3.9,10.26,0,9.71,1.22,11.93,3.76,11.93,2.75,0,3-2,3-7.62v-2H19.72Z" style="fill:#fff"/><polygon points="37.36 188.96 31.55 188.96 31.55 198.22 37.19 198.22 37.19 200.44 31.55 200.44 31.55 210.74 37.36 210.74 37.36 212.97 29.12 212.97 29.12 186.74 37.36 186.74 37.36 188.96" style="fill:#fff"/><path d="M51.8,213H49.68l-5.91-17.64c-.38-1.08-.59-2.26-.91-3.38h-.14c.1,1.7.28,3.38.28,5.08V213H40.87V186.74H43L49,205c.31.9.56,1.81.8,2.71h.1c-.07-1.15-.24-2.33-.24-3.48V186.74H51.8Z" style="fill:#fff"/><path d="M65.64,212.24a6.24,6.24,0,0,1-3.34,1.08c-6.16,0-7.06-8-7.06-12.52,0-4.24.14-14.4,7.31-14.4a5.67,5.67,0,0,1,3.09.83v2.68a5.19,5.19,0,0,0-3.06-1.15c-4.24,0-4.84,6.16-4.84,11,0,3.06,0,11.17,4.66,11.17a5.74,5.74,0,0,0,3.23-1.18Z" style="fill:#fff"/><rect x="68.77" y="186.74" width="2.44" height="26.23" style="fill:#fff"/><path d="M86,213H83.38l-1-5.39H76.84L75.9,213H73.29l5.15-26.23h2.3Zm-4-7.51L80.29,195.4c-.31-1.78-.45-3.58-.66-5.36h-.14c-.24,1.77-.42,3.58-.7,5.36l-1.53,10.05Z" style="fill:#fff"/><path d="M0,177.8v-49H9.06q7.18,0,10.41,3t3.22,9.47a15,15,0,0,1-1.58,7.57,8.61,8.61,0,0,1-5,3.78,8.78,8.78,0,0,1,5.61,3.54q1.74,2.64,1.74,7.6,0,7.25-3.36,10.67T9.6,177.8Zm6.58-28H9q3.73,0,5.47-1.85t1.74-5.77q0-4.13-1.63-5.84T9,134.64H6.58Zm0,21.75H8.79q4.56,0,6.26-1.75t1.69-6.18q0-4.46-1.83-6.43t-6.06-2H6.58Z" style="fill:#fff"/><path d="M26.45,177.8l11.48-49h6.21l11.48,49H48.94l-2.35-9.63H35.41l-2.28,9.63ZM41,141.45l-4.43,21.21h8.83Z" style="fill:#fff"/><path d="M60.15,164.75V128.8h6.51v36.48q0,3.52,1.58,5.2a6.34,6.34,0,0,0,4.83,1.68,6.28,6.28,0,0,0,4.82-1.68q1.56-1.68,1.56-5.2V128.8H86v35.95q0,7.12-3.11,10.39t-9.82,3.27q-6.71,0-9.82-3.27t-3.1-10.39" style="fill:#fff"/><path d="M56.92,118.12a37,37,0,0,1-11.23,1.74l-1.09,0v-1.72Z" style="fill:#eb6b6e"/><path d="M44.6,97.6h35c.28-.63.54-1.27.78-1.92H44.6Z" style="fill:#eb6b6e"/><path d="M44.6,90.12H82q.19-1,.33-1.92H44.6Z" style="fill:#eb6b6e"/><path d="M44.6,82.65H82.7q0-1-.06-1.92h-38Z" style="fill:#eb6b6e"/><path d="M44.6,75.17H81.9c-.14-.65-.29-1.29-.46-1.92H44.6Z" style="fill:#eb6b6e"/><path d="M44.6,67.69H79.45q-.44-1-.93-1.92H44.6Z" style="fill:#eb6b6e"/><path d="M44.6,60.21H75q-.76-1-1.59-1.92H44.6Z" style="fill:#eb6b6e"/><path d="M44.6,50.81v1.92H67.19q-1.44-1-3-1.92Z" style="fill:#eb6b6e"/><path d="M44.6,112.56H67.76c.81-.61,1.6-1.25,2.36-1.92H44.6Z" style="fill:#eb6b6e"/><path d="M44.6,105.08H75.28c.47-.62.92-1.27,1.35-1.92h-32Z" style="fill:#eb6b6e"/><path d="M44.6,2.68,19.27,28a24.63,24.63,0,0,0,.4,2.58L44.6,5.66V11L20.88,34.68c.28.7.58,1.39.92,2.06l22.8-22.8v5.31L23.78,40.07c.41.58.84,1.14,1.3,1.69L44.6,22.23v5.31L27.68,44.45c.53.47,1.08.92,1.64,1.34L44.6,30.51v5.31l-12,12c.65.35,1.32.68,2,1l10-10v5.31l-6.07,6.07c.82.2,1.65.36,2.49.48l3.57-3.57v72.76H3.29V0H39L19.94,19.06a25.49,25.49,0,0,0-.65,3.63L42,0H44.6Z" style="fill:#5ebebb"/><path d="M42,0,19.28,22.69a25.49,25.49,0,0,1,.65-3.63L39,0Z" style="fill:#ffe56c"/><path d="M44.6,2.68v3L19.67,30.59a24.63,24.63,0,0,1-.4-2.58Z" style="fill:#ffe56c"/><path d="M49.85.41,44.6,5.66v-3L47.27,0A24.75,24.75,0,0,1,49.85.41Z" style="fill:#ffe56c"/><path d="M44.6,11v3L21.8,36.74c-.34-.67-.64-1.36-.92-2.06Z" style="fill:#ffe56c"/><path d="M56,2.54,44.6,13.94V11l9.34-9.34C54.64,1.9,55.34,2.21,56,2.54Z" style="fill:#ffe56c"/><path d="M44.6,19.25v3L25.08,41.76c-.46-.54-.89-1.11-1.3-1.69Z" style="fill:#ffe56c"/><path d="M61,5.81,44.6,22.23v-3L59.33,4.52Q60.2,5.13,61,5.81Z" style="fill:#ffe56c"/><path d="M44.6,27.53v3L29.32,45.79c-.56-.42-1.11-.87-1.64-1.34Z" style="fill:#ffe56c"/><path d="M65.06,10.06,44.6,30.51v-3L63.71,8.42C64.18,8.95,64.63,9.49,65.06,10.06Z" style="fill:#ffe56c"/><path d="M44.6,35.82v3l-10,10c-.69-.3-1.36-.62-2-1Z" style="fill:#ffe56c"/><path d="M68.1,15.3,44.6,38.8v-3L67.13,13.3C67.48,13.95,67.8,14.62,68.1,15.3Z" style="fill:#ffe56c"/><path d="M44.6,44.11v3L41,50.66c-.84-.12-1.68-.28-2.49-.48Z" style="fill:#ffe56c"/><path d="M69.92,21.77,44.6,47.08v-3L69.44,19.27C69.64,20.09,69.8,20.92,69.92,21.77Z" style="fill:#ffe56c"/><path d="M70.19,26.8l-24,24h3L69.77,30.2A25.54,25.54,0,0,0,70.19,26.8Z" style="fill:#ffe56c"/><path d="M66.19,39.09l-7.85,7.85A25.64,25.64,0,0,0,66.19,39.09Z" style="fill:#ffe56c"/></g></g></svg>