<?xml version="1.0" encoding="utf-8"?>
<!-- Generator: Adobe Illustrator 24.2.3, SVG Export Plug-In . SVG Version: 6.00 Build 0)  -->
<svg version="1.1" id="Layer_1" xmlns="http://www.w3.org/2000/svg" xmlns:xlink="http://www.w3.org/1999/xlink" x="0px" y="0px"
	 viewBox="0 0 512.03 512.03" style="enable-background:new 0 0 512.03 512.03;" xml:space="preserve">
<style type="text/css">
	.st0{fill:#FFFFFF;}
</style>
<path d="M394,91.03"/>
<path class="st0" d="M256.01,0C114.62,0,0,114.62,0,256.01s114.62,256.01,256.01,256.01s256.01-114.62,256.01-256.01
	S397.41,0,256.01,0z M415.03,194.91v7.56c0,0.38-0.02,0.8-0.07,1.24c0.05,0.53,0.07,1.03,0.07,1.5c0,35.88-6.81,68.16-20.23,95.96
	c-2.93,6.07-9.19,10-15.93,10c-2.67,0-5.25-0.59-7.68-1.76c-8.79-4.25-12.48-14.84-8.24-23.62c11.09-22.96,16.72-50.07,16.72-80.58
	c0-0.48,0.02-0.99,0.07-1.53c-0.05-0.43-0.07-0.83-0.07-1.2v-8.29c0-8.14-6.2-22.91-11.85-28.23l-0.17-0.18
	c-7.9-8.41-17.47-12.68-28.45-12.68c-10.94,0-21.28,4.26-29.11,11.99c-7.77,7.67-12.05,17.78-12.05,28.49
	c0,13.69,3.46,26.72,3.49,26.85c1.42,5.29,0.29,11.04-3.04,15.37c-3.32,4.34-8.57,6.94-14.03,6.94c-55.5,0-98.73-19-126.71-36.45
	c5.9,10.12,12.57,18.79,19.92,25.88c4.63,4.46,6.47,11.08,4.81,17.29c-1.66,6.21-6.56,11.04-12.8,12.6
	c-3.07,0.77-6.15,1.39-9.21,1.87c10.68,7.63,23.7,12.85,38.84,15.57c5.99,1.08,11.1,5.27,13.33,10.93
	c2.26,5.75,1.4,12.14-2.31,17.08c-3.93,5.24-8.75,9.83-14.39,13.72c9.04,2.28,18.24,3.56,27.45,3.83c6.69,0.2,12.8,4.26,15.57,10.34
	c2.82,6.18,1.89,13.28-2.41,18.54c-6.91,8.43-14.99,15.65-24.14,21.59c45.4-1.22,82.86-10.11,115.58-43.18
	c3.32-3.36,7.75-5.22,12.48-5.25c0.03,0,0.07,0,0.1,0c4.69,0,9.1,1.81,12.44,5.11c6.93,6.86,6.99,18.08,0.13,25.01
	c-20.99,21.21-44.86,35.63-73,44.09c-22.4,6.74-47.03,9.74-79.85,9.74c-47.34,0-95.13-19.68-97.14-20.52
	c-8.47-3.54-12.85-13.14-9.98-21.85c2.87-8.71,12.11-13.83,21.01-11.64c0.15,0.04,16.37,3.83,36.54,2.22
	c10.29-0.82,19.71-2.86,28.11-6.08c-26.51-8.19-42.65-20.5-43.41-21.08c-6.05-4.68-8.41-12.67-5.86-19.88
	c2.49-7.06,9.19-11.8,16.67-11.8l0.2,0c0.21,0,2.25,0,5.31-0.32c-36.65-20.06-47.17-51.01-47.63-52.44
	c-2.33-7.11-0.08-14.92,5.6-19.45c5.42-4.32,12.59-5.12,18.62-2.16c-20.89-34.8-26.7-71.25-26.95-72.92
	c-1.21-7.93,3.08-15.7,10.43-18.9c7.35-3.2,15.96-1.03,20.93,5.27c0.12,0.15,14.09,17.35,39.52,34.08
	c28,18.42,58.61,29.42,91.04,32.71c-0.43-4.41-0.65-8.67-0.65-12.73c0-41.82,34.33-75.85,76.53-75.85c20.1,0,38.27,7.67,52.67,22.22
	c15.14-3.25,30.01-9.06,43.13-16.87l9.04-5.38l-3.18,10.03c-3.93,12.38-11.28,23.79-20.93,32.8c12.32-3.64,24.28-9.23,24.99-9.57
	l0.81-0.38l0.91-0.01h7.47l-4.14,6.22C439.4,172.62,427.66,185.44,415.03,194.91z"/>
</svg>
