<?xml version="1.0" encoding="utf-8"?>
<!-- Generator: Adobe Illustrator 24.2.3, SVG Export Plug-In . SVG Version: 6.00 Build 0)  -->
<svg version="1.1" id="Layer_1" xmlns="http://www.w3.org/2000/svg" xmlns:xlink="http://www.w3.org/1999/xlink" x="0px" y="0px"
	 viewBox="0 0 512.03 512.03" style="enable-background:new 0 0 512.03 512.03;" xml:space="preserve">
<style type="text/css">
	.st0{fill:#FFFFFF;}
</style>
<g>
	<polygon class="st0" points="258.84,427.2 258.81,427.2 258.84,430.85 	"/>
	<path class="st0" d="M256.01,0C114.62,0,0,114.62,0,256.01s114.62,256.01,256.01,256.01s256.01-114.62,256.01-256.01
		S397.41,0,256.01,0z M407.87,352.51c-2.68,3.91-6.72,6.55-11.38,7.42c-4.66,0.87-9.38-0.12-13.29-2.8
		c-8.08-5.53-10.15-16.6-4.63-24.67c16.2-23.67,24.76-51.27,24.78-79.82c0.01-37.77-15.17-73.7-42.75-101.18
		c-27.16-27.06-63.3-41.97-101.77-41.98c-79.5,0-144.32,64.06-144.49,142.79l0,0.25c-0.01,24.36,6.85,49.07,19.84,71.48
		c2.24,3.86,2.94,8.37,1.98,12.72l-11.41,51.86l52.87-12.03c4.21-0.96,8.61-0.35,12.41,1.71c20.98,11.39,44.75,17.42,68.75,17.43
		c26.15,0,51.78-7.05,74.17-20.4c4.07-2.43,8.85-3.13,13.44-1.96c4.6,1.16,8.46,4.05,10.89,8.12c5.01,8.41,2.25,19.32-6.15,24.34
		c-27.88,16.62-59.8,25.41-92.29,25.41h-0.07c-27.51-0.01-55-6.43-79.6-18.58l-73.82,16.79c-5.96,1.36-12.11-0.41-16.44-4.71
		c-4.33-4.3-6.14-10.44-4.83-16.41l15.98-72.64c-13.83-26.04-21.16-54.63-21.21-82.79c0-0.11,0-0.23,0-0.34
		c0.02-47.61,18.84-92.45,53-126.25c34.07-33.71,79.17-52.28,126.99-52.28c47.92,0.02,92.96,18.6,126.82,52.33
		c34.32,34.19,53.21,79.06,53.19,126.34C438.84,288.39,428.12,322.92,407.87,352.51z M232.33,212.42c1,2.01,1.68,4.35,0.33,7.03
		c-1.34,2.68-1.91,4.35-3.92,6.69c-2.01,2.34-4.46,4.8-6.27,6.6c-2.02,2-4.12,4.18-1.77,8.19c2.35,4.02,10.65,17.58,22.62,28.22
		c15.38,13.67,28.21,17.98,32.24,19.99c4.03,2.01,6.38,1.67,8.72-1.01c2.35-2.67,10.26-11.95,12.94-15.97
		c2.69-4.02,5.37-3.35,9.06-2.01c3.69,1.34,23.42,11.21,27.45,13.22c4.03,2.01,6.71,3.01,7.72,4.68c1.01,1.68,1.01,9.71-2.35,19.08
		c-3.35,9.37-19.79,18.41-27.17,19.07c-7.38,0.67-14.3,3.33-48.31-10.04c-40.92-16.08-66.75-57.89-68.77-60.56
		c-2.01-2.68-16.44-21.76-16.44-41.5c0-19.74,10.4-29.45,14.09-33.46c3.69-4.02,8.05-5.02,10.73-5.02h7.72
		c2.87,0.12,6.04,0.34,9.06,7.03h0C223.59,190.57,231.32,210.41,232.33,212.42z"/>
</g>
</svg>
